<?xml version="1.0" standalone="no"?>
<!DOCTYPE svg PUBLIC "-//W3C//DTD SVG 20010904//EN"
 "http://www.w3.org/TR/2001/REC-SVG-20010904/DTD/svg10.dtd">
<svg version="1.0" xmlns="http://www.w3.org/2000/svg"
 width="600.000000pt" height="600.000000pt" viewBox="0 0 600.000000 600.000000"
 preserveAspectRatio="xMidYMid meet">
<metadata>
Created by potrace 1.14, written by Peter Selinger 2001-2017
</metadata>
<g transform="translate(0.000000,600.000000) scale(0.100000,-0.100000)"
fill="#000000" stroke="none">
<path d="M0 3000 l0 -3000 3000 0 3000 0 0 3000 0 3000 -3000 0 -3000 0 0
-3000z m3439 2455 c150 -24 258 -54 574 -161 315 -107 360 -115 416 -75 39 28
67 85 76 156 14 112 9 105 76 105 53 0 59 -2 63 -22 3 -13 28 -311 56 -663 28
-352 53 -664 56 -692 l6 -53 -59 0 -60 0 -53 138 c-113 292 -227 479 -395 647
-171 171 -353 279 -578 344 -176 50 -302 64 -527 58 -222 -5 -344 -25 -513
-83 -218 -76 -387 -185 -556 -360 -267 -274 -454 -674 -530 -1129 -147 -878
121 -1805 663 -2294 185 -167 456 -305 721 -367 112 -27 134 -28 330 -28 156
0 234 5 302 17 183 34 377 100 533 180 l85 44 0 769 c0 810 -2 852 -47 970
-27 74 -87 138 -161 173 -73 34 -145 48 -284 57 l-103 7 0 64 0 63 880 0 880
0 0 -65 0 -65 -68 0 c-193 0 -328 -69 -382 -196 -11 -24 -27 -81 -37 -126 -15
-74 -18 -168 -21 -906 l-3 -822 -107 -54 c-511 -256 -980 -358 -1570 -343
-369 10 -591 45 -896 144 -440 142 -807 410 -1087 793 -230 314 -366 658 -420
1060 -19 145 -17 491 4 630 69 444 236 836 520 1215 78 103 339 364 444 443
345 260 695 394 1158 441 129 14 490 5 614 -14z"/>
</g>
</svg>
